<svg width="28" height="34" viewBox="0 0 28 34" fill="none" xmlns="http://www.w3.org/2000/svg">
<g clip-path="url(#clip0_5_2)">
<path d="M1.27273 18.5455H23.6547L19.4637 23.6345C18.9666 24.238 18.9666 25.2166 19.4637 25.8201C19.7122 26.1218 20.0379 26.2727 20.3636 26.2727C20.6894 26.2727 21.0151 26.1218 21.2635 25.82L27.6272 18.0927C28.1242 17.4893 28.1242 16.5107 27.6272 15.9072L21.2635 8.17988C20.7666 7.57643 19.9607 7.57643 19.4637 8.17988C18.9666 8.78333 18.9666 9.76191 19.4637 10.3655L23.6547 15.4545H1.27273C0.569842 15.4545 0 16.1465 0 17C0 17.8535 0.569842 18.5455 1.27273 18.5455Z" fill="white"/>
</g>
<defs>
<clipPath id="clip0_5_2">
<rect width="28" height="34" fill="white"/>
</clipPath>
</defs>
</svg>
